[
  {
    "pts_time": "0.000000",
    "duration_time": "0.033333"
  },
  {
    "pts_time": "0.033333",
    "duration_time": "0.033333"
  },
  {
    "pts_time": "0.066667",
    "duration_time": "0.033333"
  },
  {
    "pts_time": "0.100000",
    "duration_time": "0.033333"
  },
  {
    "pts_time": "0.133333",
    "duration_time": "0.033333"
  },
  {
    "pts_time": "0.166667",
    "duration_time": "0.033333"
  },
  {
    "pts_time": "0.200000",
    "duration_time": "0.033333"
  },
  {
    "pts_time": "0.233333",
    "duration_time": "0.033333"
  },
  {
    "pts_time": "0.266667",
    "duration_time": "0.033333"
  },
  {
    "pts_time": "0.300000",
    "duration_time": "0.033333"
  },
  {
    "pts_time": "0.333333",
    "duration_time": "0.033333"
  },
  {
    "pts_time": "0.366667",
    "duration_time": "0.033333"
  },
  {
    "pts_time": "0.400000",
    "duration_time": "0.033333"
  },
  {
    "pts_time": "0.433333",
    "duration_time": "0.033333"
  },
  {
    "pts_time": "0.466667",
    "duration_time": "0.033333"
  },
  {
    "pts_time": "0.500000",
    "duration_time": "0.033333"
  },
  {
    "pts_time": "0.533333",
    "duration_time": "0.033333"
  },
  {
    "pts_time": "0.566667",
    "duration_time": "0.033333"
  },
  {
    "pts_time": "0.600000",
    "duration_time": "0.033333"
  },
  {
    "pts_time": "0.633333",
    "duration_time": "0.033333"
  },
  {
    "pts_time": "0.666667",
    "duration_time": "0.033333"
  },
  {
    "pts_time": "0.700000",
    "duration_time": "0.033333"
  },
  {
    "pts_time": "0.733333",
    "duration_time": "0.033333"
  },
  {
    "pts_time": "0.766667",
    "duration_time": "0.033333"
  },
  {
    "pts_time": "0.800000",
    "duration_time": "0.033333"
  },
  {
    "pts_time": "0.833333",
    "duration_time": "0.033333"
  },
  {
    "pts_time": "0.866667",
    "duration_time": "0.033333"
  },
  {
    "pts_time": "0.900000",
    "duration_time": "0.033333"
  },
  {
    "pts_time": "0.933333",
    "duration_time": "0.033333"
  },
  {
    "pts_time": "0.966667",
    "duration_time": "0.033333"
  },
  {
    "pts_time": "1.000000",
    "duration_time": "0.533333"
  },
  {
    "pts_time": "1.533333",
    "duration_time": "0.066667"
  },
  {
    "pts_time": "1.600000",
    "duration_time": "0.033333"
  },
  {
    "pts_time": "1.633333",
    "duration_time": "0.066667"
  },
  {
    "pts_time": "1.700000",
    "duration_time": "0.033333"
  },
  {
    "pts_time": "1.733333",
    "duration_time": "0.066667"
  },
  {
    "pts_time": "1.800000",
    "duration_time": "0.033333"
  },
  {
    "pts_time": "1.833333",
    "duration_time": "0.066667"
  },
  {
    "pts_time": "1.900000",
    "duration_time": "0.033333"
  },
  {
    "pts_time": "1.933333",
    "duration_time": "0.066667"
  },
  {
    "pts_time": "2.000000",
    "duration_time": "0.033333"
  },
  {
    "pts_time": "2.033333",
    "duration_time": "0.066667"
  },
  {
    "pts_time": "2.100000",
    "duration_time": "0.033333"
  },
  {
    "pts_time": "2.133333",
    "duration_time": "0.066667"
  },
  {
    "pts_time": "2.200000",
    "duration_time": "0.033333"
  },
  {
    "pts_time": "2.233333",
    "duration_time": "0.066667"
  },
  {
    "pts_time": "2.300000",
    "duration_time": "0.033333"
  },
  {
    "pts_time": "2.333333",
    "duration_time": "0.066667"
  },
  {
    "pts_time": "2.400000",
    "duration_time": "0.033333"
  },
  {
    "pts_time": "2.433333",
    "duration_time": "0.066667"
  },
  {
    "pts_time": "2.500000",
    "duration_time": "0.033333"
  },
  {
    "pts_time": "2.533333",
    "duration_time": "0.066667"
  },
  {
    "pts_time": "2.600000",
    "duration_time": "0.033333"
  },
  {
    "pts_time": "2.633333",
    "duration_time": "0.066667"
  },
  {
    "pts_time": "2.700000",
    "duration_time": "0.033333"
  },
  {
    "pts_time": "2.733333",
    "duration_time": "0.066667"
  },
  {
    "pts_time": "2.800000",
    "duration_time": "0.033333"
  },
  {
    "pts_time": "2.833333",
    "duration_time": "0.066667"
  },
  {
    "pts_time": "2.900000",
    "duration_time": "0.033333"
  },
  {
    "pts_time": "2.933333",
    "duration_time": "0.066667"
  },
  {
    "pts_time": "3.000000",
    "duration_time": "0.033333"
  },
  {
    "pts_time": "3.033333",
    "duration_time": "0.066667"
  },
  {
    "pts_time": "3.100000",
    "duration_time": "0.033333"
  },
  {
    "pts_time": "3.133333",
    "duration_time": "0.066667"
  },
  {
    "pts_time": "3.200000",
    "duration_time": "0.033333"
  },
  {
    "pts_time": "3.233333",
    "duration_time": "0.066667"
  },
  {
    "pts_time": "3.300000",
    "duration_time": "0.033333"
  },
  {
    "pts_time": "3.333333",
    "duration_time": "0.066667"
  },
  {
    "pts_time": "3.400000",
    "duration_time": "0.033333"
  },
  {
    "pts_time": "3.433333",
    "duration_time": "0.066667"
  },
  {
    "pts_time": "3.500000",
    "duration_time": "0.033333"
  },
  {
    "pts_time": "3.533333",
    "duration_time": "0.066667"
  },
  {
    "pts_time": "3.600000",
    "duration_time": "0.033333"
  },
  {
    "pts_time": "3.633333",
    "duration_time": "0.066667"
  },
  {
    "pts_time": "3.700000",
    "duration_time": "0.033333"
  },
  {
    "pts_time": "3.733333",
    "duration_time": "0.066667"
  },
  {
    "pts_time": "3.800000",
    "duration_time": "0.033333"
  },
  {
    "pts_time": "3.833333",
    "duration_time": "0.066667"
  },
  {
    "pts_time": "3.900000",
    "duration_time": "0.033333"
  },
  {
    "pts_time": "3.933333",
    "duration_time": "0.066667"
  },
  {
    "pts_time": "4.000000",
    "duration_time": "0.033333"
  },
  {
    "pts_time": "4.033333",
    "duration_time": "0.066667"
  },
  {
    "pts_time": "4.100000",
    "duration_time": "0.033333"
  },
  {
    "pts_time": "4.133333",
    "duration_time": "0.066667"
  },
  {
    "pts_time": "4.200000",
    "duration_time": "0.033333"
  },
  {
    "pts_time": "4.233333",
    "duration_time": "0.066667"
  },
  {
    "pts_time": "4.300000",
    "duration_time": "0.033333"
  },
  {
    "pts_time": "4.333333",
    "duration_time": "0.066667"
  },
  {
    "pts_time": "4.400000",
    "duration_time": "0.033333"
  },
  {
    "pts_time": "4.433333",
    "duration_time": "0.066667"
  },
  {
    "pts_time": "4.500000",
    "duration_time": "0.033333"
  },
  {
    "pts_time": "4.533333",
    "duration_time": "0.066667"
  },
  {
    "pts_time": "4.600000",
    "duration_time": "0.033333"
  },
  {
    "pts_time": "4.633333",
    "duration_time": "0.066667"
  },
  {
    "pts_time": "4.700000",
    "duration_time": "0.033333"
  },
  {
    "pts_time": "4.733333",
    "duration_time": "0.066667"
  },
  {
    "pts_time": "4.800000",
    "duration_time": "0.033333"
  },
  {
    "pts_time": "4.833333",
    "duration_time": "0.066667"
  },
  {
    "pts_time": "4.900000",
    "duration_time": "0.033333"
  },
  {
    "pts_time": "4.933333",
    "duration_time": "0.066667"
  },
  {
    "pts_time": "5.000000",
    "duration_time": "0.033333"
  },
  {
    "pts_time": "5.033333",
    "duration_time": "0.066667"
  },
  {
    "pts_time": "5.100000",
    "duration_time": "0.033333"
  },
  {
    "pts_time": "5.133333",
    "duration_time": "0.066667"
  },
  {
    "pts_time": "5.200000",
    "duration_time": "0.033333"
  },
  {
    "pts_time": "5.233333",
    "duration_time": "0.066667"
  },
  {
    "pts_time": "5.300000",
    "duration_time": "0.033333"
  },
  {
    "pts_time": "5.333333",
    "duration_time": "0.066667"
  },
  {
    "pts_time": "5.400000",
    "duration_time": "0.033333"
  },
  {
    "pts_time": "5.433333",
    "duration_time": "0.066667"
  },
  {
    "pts_time": "5.500000",
    "duration_time": "0.033333"
  },
  {
    "pts_time": "5.533333",
    "duration_time": "0.066667"
  },
  {
    "pts_time": "5.600000",
    "duration_time": "0.033333"
  },
  {
    "pts_time": "5.633333",
    "duration_time": "0.066667"
  },
  {
    "pts_time": "5.700000",
    "duration_time": "0.033333"
  },
  {
    "pts_time": "5.733333",
    "duration_time": "0.066667"
  },
  {
    "pts_time": "5.800000",
    "duration_time": "0.033333"
  },
  {
    "pts_time": "5.833333",
    "duration_time": "0.066667"
  },
  {
    "pts_time": "5.900000",
    "duration_time": "0.033333"
  },
  {
    "pts_time": "5.933333",
    "duration_time": "0.066667"
  },
  {
    "pts_time": "6.000000",
    "duration_time": "0.033333"
  },
  {
    "pts_time": "6.033333",
    "duration_time": "0.066667"
  },
  {
    "pts_time": "6.100000",
    "duration_time": "0.033333"
  },
  {
    "pts_time": "6.133333",
    "duration_time": "0.066667"
  },
  {
    "pts_time": "6.200000",
    "duration_time": "0.033333"
  },
  {
    "pts_time": "6.233333",
    "duration_time": "0.066667"
  },
  {
    "pts_time": "6.300000",
    "duration_time": "0.033333"
  },
  {
    "pts_time": "6.333333",
    "duration_time": "0.066667"
  },
  {
    "pts_time": "6.400000",
    "duration_time": "0.033333"
  },
  {
    "pts_time": "6.433333",
    "duration_time": "0.066667"
  },
  {
    "pts_time": "6.500000",
    "duration_time": "0.033333"
  },
  {
    "pts_time": "6.533333",
    "duration_time": "0.066667"
  },
  {
    "pts_time": "6.600000",
    "duration_time": "0.033333"
  },
  {
    "pts_time": "6.633333",
    "duration_time": "0.066667"
  },
  {
    "pts_time": "6.700000",
    "duration_time": "0.033333"
  },
  {
    "pts_time": "6.733333",
    "duration_time": "0.066667"
  },
  {
    "pts_time": "6.800000",
    "duration_time": "0.033333"
  },
  {
    "pts_time": "6.833333",
    "duration_time": "0.066667"
  },
  {
    "pts_time": "6.900000",
    "duration_time": "0.033333"
  },
  {
    "pts_time": "6.933333",
    "duration_time": "0.066667"
  },
  {
    "pts_time": "7.000000",
    "duration_time": "0.033333"
  },
  {
    "pts_time": "7.033333",
    "duration_time": "0.066667"
  },
  {
    "pts_time": "7.100000",
    "duration_time": "0.033333"
  },
  {
    "pts_time": "7.133333",
    "duration_time": "0.066667"
  },
  {
    "pts_time": "7.200000",
    "duration_time": "0.033333"
  },
  {
    "pts_time": "7.233333",
    "duration_time": "0.066667"
  },
  {
    "pts_time": "7.300000",
    "duration_time": "0.033333"
  },
  {
    "pts_time": "7.333333",
    "duration_time": "0.066667"
  },
  {
    "pts_time": "7.400000",
    "duration_time": "0.033333"
  },
  {
    "pts_time": "7.433333",
    "duration_time": "0.066667"
  },
  {
    "pts_time": "7.500000",
    "duration_time": "0.033333"
  },
  {
    "pts_time": "7.533333",
    "duration_time": "0.066667"
  },
  {
    "pts_time": "7.600000",
    "duration_time": "0.033333"
  },
  {
    "pts_time": "7.633333",
    "duration_time": "0.066667"
  },
  {
    "pts_time": "7.700000",
    "duration_time": "0.033333"
  },
  {
    "pts_time": "7.733333",
    "duration_time": "0.066667"
  },
  {
    "pts_time": "7.800000",
    "duration_time": "0.033333"
  },
  {
    "pts_time": "7.833333",
    "duration_time": "0.066667"
  },
  {
    "pts_time": "7.900000",
    "duration_time": "0.033333"
  },
  {
    "pts_time": "7.933333",
    "duration_time": "0.066667"
  },
  {
    "pts_time": "8.000000",
    "duration_time": "0.033333"
  },
  {
    "pts_time": "8.033333",
    "duration_time": "0.066667"
  },
  {
    "pts_time": "8.100000",
    "duration_time": "0.033333"
  },
  {
    "pts_time": "8.133333",
    "duration_time": "0.066667"
  },
  {
    "pts_time": "8.200000",
    "duration_time": "0.033333"
  },
  {
    "pts_time": "8.233333",
    "duration_time": "0.066667"
  },
  {
    "pts_time": "8.300000",
    "duration_time": "0.033333"
  },
  {
    "pts_time": "8.333333",
    "duration_time": "0.066667"
  },
  {
    "pts_time": "8.400000",
    "duration_time": "0.033333"
  },
  {
    "pts_time": "8.433333",
    "duration_time": "0.066667"
  },
  {
    "pts_time": "8.500000",
    "duration_time": "0.033333"
  },
  {
    "pts_time": "8.533333",
    "duration_time": "0.066667"
  },
  {
    "pts_time": "8.600000",
    "duration_time": "0.033333"
  },
  {
    "pts_time": "8.633333",
    "duration_time": "0.066667"
  },
  {
    "pts_time": "8.700000",
    "duration_time": "0.033333"
  },
  {
    "pts_time": "8.733333",
    "duration_time": "0.066667"
  },
  {
    "pts_time": "8.800000",
    "duration_time": "0.033333"
  },
  {
    "pts_time": "8.833333",
    "duration_time": "0.066667"
  },
  {
    "pts_time": "8.900000",
    "duration_time": "0.033333"
  },
  {
    "pts_time": "8.933333",
    "duration_time": "0.066667"
  },
  {
    "pts_time": "9.000000",
    "duration_time": "0.033333"
  },
  {
    "pts_time": "9.033333",
    "duration_time": "0.066667"
  },
  {
    "pts_time": "9.100000",
    "duration_time": "0.033333"
  },
  {
    "pts_time": "9.133333",
    "duration_time": "0.066667"
  },
  {
    "pts_time": "9.200000",
    "duration_time": "0.033333"
  },
  {
    "pts_time": "9.233333",
    "duration_time": "0.066667"
  },
  {
    "pts_time": "9.300000",
    "duration_time": "0.033333"
  },
  {
    "pts_time": "9.333333",
    "duration_time": "0.066667"
  },
  {
    "pts_time": "9.400000",
    "duration_time": "0.033333"
  },
  {
    "pts_time": "9.433333",
    "duration_time": "0.066667"
  },
  {
    "pts_time": "9.500000",
    "duration_time": "0.033333"
  },
  {
    "pts_time": "9.533333",
    "duration_time": "0.066667"
  },
  {
    "pts_time": "9.600000",
    "duration_time": "0.033333"
  },
  {
    "pts_time": "9.633333",
    "duration_time": "0.066667"
  },
  {
    "pts_time": "9.700000",
    "duration_time": "0.033333"
  },
  {
    "pts_time": "9.733333",
    "duration_time": "0.066667"
  },
  {
    "pts_time": "9.800000",
    "duration_time": "0.033333"
  },
  {
    "pts_time": "9.833333",
    "duration_time": "0.066667"
  },
  {
    "pts_time": "9.900000",
    "duration_time": "0.033333"
  },
  {
    "pts_time": "9.933333",
    "duration_time": "0.066667"
  },
  {
    "pts_time": "10.000000",
    "duration_time": "0.033333"
  },
  {
    "pts_time": "10.033333",
    "duration_time": "0.066667"
  },
  {
    "pts_time": "10.100000",
    "duration_time": "0.033333"
  },
  {
    "pts_time": "10.133333",
    "duration_time": "0.066667"
  },
  {
    "pts_time": "10.200000",
    "duration_time": "0.033333"
  },
  {
    "pts_time": "10.233333",
    "duration_time": "0.066667"
  },
  {
    "pts_time": "10.300000",
    "duration_time": "0.033333"
  },
  {
    "pts_time": "10.333333",
    "duration_time": "0.066667"
  },
  {
    "pts_time": "10.400000",
    "duration_time": "0.033333"
  },
  {
    "pts_time": "10.433333",
    "duration_time": "0.066667"
  },
  {
    "pts_time": "10.500000",
    "duration_time": "0.033333"
  },
  {
    "pts_time": "10.533333",
    "duration_time": "0.066667"
  },
  {
    "pts_time": "10.600000",
    "duration_time": "0.033333"
  },
  {
    "pts_time": "10.633333",
    "duration_time": "0.066667"
  },
  {
    "pts_time": "10.700000",
    "duration_time": "0.033333"
  },
  {
    "pts_time": "10.733333",
    "duration_time": "0.066667"
  },
  {
    "pts_time": "10.800000",
    "duration_time": "0.033333"
  },
  {
    "pts_time": "10.833333",
    "duration_time": "0.066667"
  },
  {
    "pts_time": "10.900000",
    "duration_time": "0.033333"
  },
  {
    "pts_time": "10.933333",
    "duration_time": "0.066667"
  },
  {
    "pts_time": "11.000000",
    "duration_time": "0.033333"
  },
  {
    "pts_time": "11.033333",
    "duration_time": "0.066667"
  },
  {
    "pts_time": "11.100000",
    "duration_time": "0.033333"
  },
  {
    "pts_time": "11.133333",
    "duration_time": "0.066667"
  },
  {
    "pts_time": "11.200000",
    "duration_time": "0.033333"
  },
  {
    "pts_time": "11.233333",
    "duration_time": "0.066667"
  },
  {
    "pts_time": "11.300000",
    "duration_time": "0.033333"
  },
  {
    "pts_time": "11.333333",
    "duration_time": "0.066667"
  },
  {
    "pts_time": "11.400000",
    "duration_time": "0.033333"
  },
  {
    "pts_time": "11.433333",
    "duration_time": "0.066667"
  },
  {
    "pts_time": "11.500000",
    "duration_time": "0.033333"
  },
  {
    "pts_time": "11.533333",
    "duration_time": "0.066667"
  },
  {
    "pts_time": "11.600000",
    "duration_time": "0.033333"
  },
  {
    "pts_time": "11.633333",
    "duration_time": "0.066667"
  },
  {
    "pts_time": "11.700000",
    "duration_time": "0.033333"
  },
  {
    "pts_time": "11.733333",
    "duration_time": "0.066667"
  },
  {
    "pts_time": "11.800000",
    "duration_time": "0.033333"
  },
  {
    "pts_time": "11.833333",
    "duration_time": "0.066667"
  },
  {
    "pts_time": "11.900000",
    "duration_time": "0.033333"
  },
  {
    "pts_time": "11.933333",
    "duration_time": "0.066667"
  },
  {
    "pts_time": "12.000000",
    "duration_time": "0.033333"
  },
  {
    "pts_time": "12.033333",
    "duration_time": "0.066667"
  },
  {
    "pts_time": "12.100000",
    "duration_time": "0.033333"
  },
  {
    "pts_time": "12.133333",
    "duration_time": "0.066667"
  },
  {
    "pts_time": "12.200000",
    "duration_time": "0.033333"
  },
  {
    "pts_time": "12.233333",
    "duration_time": "0.066667"
  },
  {
    "pts_time": "12.300000",
    "duration_time": "0.033333"
  },
  {
    "pts_time": "12.333333",
    "duration_time": "0.066667"
  },
  {
    "pts_time": "12.400000",
    "duration_time": "0.033333"
  },
  {
    "pts_time": "12.433333",
    "duration_time": "0.066667"
  },
  {
    "pts_time": "12.500000",
    "duration_time": "0.033333"
  },
  {
    "pts_time": "12.533333",
    "duration_time": "0.066667"
  },
  {
    "pts_time": "12.600000",
    "duration_time": "0.033333"
  },
  {
    "pts_time": "12.633333",
    "duration_time": "0.066667"
  },
  {
    "pts_time": "12.700000",
    "duration_time": "0.033333"
  },
  {
    "pts_time": "12.733333",
    "duration_time": "0.066667"
  },
  {
    "pts_time": "12.800000",
    "duration_time": "0.033333"
  },
  {
    "pts_time": "12.833333",
    "duration_time": "0.066667"
  },
  {
    "pts_time": "12.900000",
    "duration_time": "0.033333"
  },
  {
    "pts_time": "12.933333",
    "duration_time": "0.066667"
  },
  {
    "pts_time": "13.000000",
    "duration_time": "0.033333"
  },
  {
    "pts_time": "13.033333",
    "duration_time": "0.066667"
  },
  {
    "pts_time": "13.100000",
    "duration_time": "0.033333"
  },
  {
    "pts_time": "13.133333",
    "duration_time": "0.066667"
  },
  {
    "pts_time": "13.200000",
    "duration_time": "0.033333"
  },
  {
    "pts_time": "13.233333",
    "duration_time": "0.066667"
  },
  {
    "pts_time": "13.300000",
    "duration_time": "0.033333"
  },
  {
    "pts_time": "13.333333",
    "duration_time": "0.066667"
  },
  {
    "pts_time": "13.400000",
    "duration_time": "0.033333"
  },
  {
    "pts_time": "13.433333",
    "duration_time": "0.066667"
  },
  {
    "pts_time": "13.500000",
    "duration_time": "0.033333"
  },
  {
    "pts_time": "13.533333",
    "duration_time": "0.066667"
  },
  {
    "pts_time": "13.600000",
    "duration_time": "0.033333"
  },
  {
    "pts_time": "13.633333",
    "duration_time": "0.066667"
  },
  {
    "pts_time": "13.700000",
    "duration_time": "0.033333"
  },
  {
    "pts_time": "13.733333",
    "duration_time": "0.066667"
  },
  {
    "pts_time": "13.800000",
    "duration_time": "0.033333"
  },
  {
    "pts_time": "13.833333",
    "duration_time": "0.066667"
  },
  {
    "pts_time": "13.900000",
    "duration_time": "0.033333"
  },
  {
    "pts_time": "13.933333",
    "duration_time": "0.066667"
  },
  {
    "pts_time": "14.000000",
    "duration_time": "0.033333"
  },
  {
    "pts_time": "14.033333",
    "duration_time": "0.066667"
  },
  {
    "pts_time": "14.100000",
    "duration_time": "0.033333"
  },
  {
    "pts_time": "14.133333",
    "duration_time": "0.066667"
  },
  {
    "pts_time": "14.200000",
    "duration_time": "0.033333"
  },
  {
    "pts_time": "14.233333",
    "duration_time": "0.066667"
  },
  {
    "pts_time": "14.300000",
    "duration_time": "0.033333"
  },
  {
    "pts_time": "14.333333",
    "duration_time": "0.066667"
  },
  {
    "pts_time": "14.400000",
    "duration_time": "0.033333"
  },
  {
    "pts_time": "14.433333",
    "duration_time": "0.066667"
  },
  {
    "pts_time": "14.500000",
    "duration_time": "0.033333"
  },
  {
    "pts_time": "14.533333",
    "duration_time": "0.066667"
  },
  {
    "pts_time": "14.600000",
    "duration_time": "0.033333"
  },
  {
    "pts_time": "14.633333",
    "duration_time": "0.066667"
  },
  {
    "pts_time": "14.700000",
    "duration_time": "0.033333"
  },
  {
    "pts_time": "14.733333",
    "duration_time": "0.066667"
  },
  {
    "pts_time": "14.800000",
    "duration_time": "0.033333"
  },
  {
    "pts_time": "14.833333",
    "duration_time": "0.066667"
  },
  {
    "pts_time": "14.900000",
    "duration_time": "0.033333"
  },
  {
    "pts_time": "14.933333",
    "duration_time": "0.033333"
  }
]
